<svg xmlns="http://www.w3.org/2000/svg" width="48" height="48" x="0px" y="0px" style="fill:#000000" viewBox="0 0 172 172">
    <g xmlns="http://www.w3.org/2000/svg" fill="none" fill-rule="nonzero" stroke="none" stroke-dasharray="" stroke-dashoffset="0" stroke-linecap="butt" stroke-linejoin="miter" stroke-miterlimit="10" stroke-width="1" font-family="none" font-size="none" font-weight="none" style="mix-blend-mode:normal" text-anchor="none">
        <path fill="none" d="M 0 172 v -172 h 172 v 172 Z"/>
        <g fill="#424242">
            <path d="M 57.3333 50.1667 c 0 3.956 -3.21067 7.16667 -7.16667 7.16667 h -21.5 c -3.956 0 -7.16667 -3.21067 -7.16667 -7.16667 v -21.5 c 0 -3.956 3.21067 -7.16667 7.16667 -7.16667 h 21.5 c 3.956 0 7.16667 3.21067 7.16667 7.16667 Z M 103.917 50.1667 c 0 3.956 -3.21067 7.16667 -7.16667 7.16667 h -21.5 c -3.956 0 -7.16667 -3.21067 -7.16667 -7.16667 v -21.5 c 0 -3.956 3.21067 -7.16667 7.16667 -7.16667 h 21.5 c 3.956 0 7.16667 3.21067 7.16667 7.16667 Z M 150.5 50.1667 c 0 3.956 -3.21067 7.16667 -7.16667 7.16667 h -21.5 c -3.956 0 -7.16667 -3.21067 -7.16667 -7.16667 v -21.5 c 0 -3.956 3.21067 -7.16667 7.16667 -7.16667 h 21.5 c 3.956 0 7.16667 3.21067 7.16667 7.16667 Z M 57.3333 96.75 c 0 3.956 -3.21067 7.16667 -7.16667 7.16667 h -21.5 c -3.956 0 -7.16667 -3.21067 -7.16667 -7.16667 v -21.5 c 0 -3.956 3.21067 -7.16667 7.16667 -7.16667 h 21.5 c 3.956 0 7.16667 3.21067 7.16667 7.16667 Z M 103.917 96.75 c 0 3.956 -3.21067 7.16667 -7.16667 7.16667 h -21.5 c -3.956 0 -7.16667 -3.21067 -7.16667 -7.16667 v -21.5 c 0 -3.956 3.21067 -7.16667 7.16667 -7.16667 h 21.5 c 3.956 0 7.16667 3.21067 7.16667 7.16667 Z M 150.5 96.75 c 0 3.956 -3.21067 7.16667 -7.16667 7.16667 h -21.5 c -3.956 0 -7.16667 -3.21067 -7.16667 -7.16667 v -21.5 c 0 -3.956 3.21067 -7.16667 7.16667 -7.16667 h 21.5 c 3.956 0 7.16667 3.21067 7.16667 7.16667 Z M 57.3333 143.333 c 0 3.956 -3.21067 7.16667 -7.16667 7.16667 h -21.5 c -3.956 0 -7.16667 -3.21067 -7.16667 -7.16667 v -21.5 c 0 -3.956 3.21067 -7.16667 7.16667 -7.16667 h 21.5 c 3.956 0 7.16667 3.21067 7.16667 7.16667 Z M 103.917 143.333 c 0 3.956 -3.21067 7.16667 -7.16667 7.16667 h -21.5 c -3.956 0 -7.16667 -3.21067 -7.16667 -7.16667 v -21.5 c 0 -3.956 3.21067 -7.16667 7.16667 -7.16667 h 21.5 c 3.956 0 7.16667 3.21067 7.16667 7.16667 Z M 150.5 143.333 c 0 3.956 -3.21067 7.16667 -7.16667 7.16667 h -21.5 c -3.956 0 -7.16667 -3.21067 -7.16667 -7.16667 v -21.5 c 0 -3.956 3.21067 -7.16667 7.16667 -7.16667 h 21.5 c 3.956 0 7.16667 3.21067 7.16667 7.16667 Z"/>
        </g>
    </g>
</svg>
